<svg width="122" height="118" viewBox="0 0 122 118" fill="none" xmlns="http://www.w3.org/2000/svg">
<path fill-rule="evenodd" clip-rule="evenodd" d="M21.6342 82.3962C21.6342 82.3962 21.6342 82.3963 21.765 82.4697C21.8364 82.6016 21.8365 82.6016 21.8365 82.6016L21.8438 82.5976L21.8663 82.5855L21.9549 82.5382C22.0327 82.4967 22.1476 82.436 22.2954 82.3588C22.5909 82.2044 23.0178 81.9845 23.5428 81.7225C24.593 81.1985 26.0353 80.5067 27.6042 79.8349C29.1736 79.1628 30.8667 78.5121 32.4192 78.0693C33.9774 77.6248 35.3729 77.3961 36.3566 77.5499L36.403 77.2535C35.3504 77.089 33.9008 77.3347 32.3369 77.7808C30.7673 78.2285 29.0613 78.8846 27.4861 79.5591C25.9103 80.2339 24.4625 80.9284 23.4089 81.4541C22.8819 81.717 22.4534 81.9378 22.1565 82.0929C22.1497 82.0964 22.1429 82.0999 22.1363 82.1034C22.1813 82.0199 22.2321 81.9253 22.2878 81.8204C22.5321 81.3614 22.8734 80.7059 23.2618 79.9196C24.0383 78.3475 25.0044 76.2499 25.76 74.1525C26.5136 72.0603 27.0652 69.9487 26.9966 68.356C26.9623 67.5586 26.7719 66.871 26.3529 66.3832C25.9292 65.8901 25.2919 65.6243 24.4167 65.6328L24.4196 65.9328C25.2293 65.9249 25.7727 66.1683 26.1253 66.5787C26.4826 66.9946 26.6641 67.6049 26.6969 68.3689C26.7627 69.8989 26.2298 71.9631 25.4777 74.0508C24.7275 76.1333 23.7668 78.2197 22.9928 79.7867C22.6059 80.5699 22.2661 81.2227 22.023 81.6795C21.9015 81.9079 21.8041 82.0873 21.7372 82.2096C21.7038 82.2707 21.678 82.3175 21.6605 82.3489L21.6408 82.3845L21.6342 82.3962ZM21.765 82.4697L21.8365 82.6016L21.3809 82.8481L21.6342 82.3962L21.765 82.4697Z" fill="white"/>
<path fill-rule="evenodd" clip-rule="evenodd" d="M60.0276 46.1122C47.1441 53.0561 35.6462 62.8131 28.6953 74.0643L28.9505 74.2219C35.8668 63.0267 47.3196 53.3023 60.1699 46.3763C73.0203 39.4504 87.2545 35.3303 99.7242 35.3303V35.0303C87.194 35.0303 72.9111 39.1684 60.0276 46.1122Z" fill="white"/>
<path d="M21.765 82.4697C21.6342 82.3963 21.6342 82.3962 21.6342 82.3962M21.765 82.4697C21.8364 82.6016 21.8365 82.6016 21.8365 82.6016M21.765 82.4697L21.8365 82.6016M21.765 82.4697L21.6342 82.3962M21.6342 82.3962L21.3809 82.8481L21.8365 82.6016M21.6342 82.3962L21.6408 82.3845L21.6605 82.3489C21.678 82.3175 21.7038 82.2707 21.7372 82.2096C21.8041 82.0873 21.9015 81.9079 22.023 81.6795C22.2661 81.2227 22.6059 80.5699 22.9928 79.7867C23.7668 78.2197 24.7275 76.1333 25.4777 74.0508C26.2298 71.9631 26.7627 69.8989 26.6969 68.3689C26.6641 67.6049 26.4826 66.9946 26.1253 66.5787C25.7727 66.1683 25.2293 65.9249 24.4196 65.9328L24.4167 65.6328C25.2919 65.6243 25.9292 65.8901 26.3529 66.3832C26.7719 66.871 26.9623 67.5586 26.9966 68.356C27.0652 69.9487 26.5136 72.0603 25.76 74.1525C25.0044 76.2499 24.0383 78.3475 23.2618 79.9196C22.8734 80.7059 22.5321 81.3614 22.2878 81.8204C22.2321 81.9253 22.1813 82.0199 22.1363 82.1034C22.1429 82.0999 22.1497 82.0964 22.1565 82.0929C22.4534 81.9378 22.8819 81.717 23.4089 81.4541C24.4625 80.9284 25.9103 80.2339 27.4861 79.5591C29.0613 78.8846 30.7673 78.2285 32.3369 77.7808C33.9008 77.3347 35.3504 77.089 36.403 77.2535L36.3566 77.5499C35.3729 77.3961 33.9774 77.6248 32.4192 78.0693C30.8667 78.5121 29.1736 79.1628 27.6042 79.8349C26.0353 80.5067 24.593 81.1985 23.5428 81.7225C23.0178 81.9845 22.5909 82.2044 22.2954 82.3588C22.1476 82.436 22.0327 82.4967 21.9549 82.5382L21.8663 82.5855L21.8438 82.5976L21.8365 82.6016M28.6953 74.0643C35.6462 62.8131 47.1441 53.0561 60.0276 46.1122C72.9111 39.1684 87.194 35.0303 99.7242 35.0303V35.3303C87.2545 35.3303 73.0203 39.4504 60.1699 46.3763C47.3196 53.3023 35.8668 63.0267 28.9505 74.2219L28.6953 74.0643Z" stroke="white" stroke-width="2"/>
</svg>
